<?xml version="1.0" encoding="utf-8"?>
<!-- Generator: Adobe Illustrator 22.0.1, SVG Export Plug-In . SVG Version: 6.00 Build 0)  -->
<svg version="1.1" id="Layer_1" xmlns="http://www.w3.org/2000/svg" xmlns:xlink="http://www.w3.org/1999/xlink" x="0px" y="0px"
	 viewBox="0 0 700 56" style="enable-background:new 0 0 700 56;" xml:space="preserve">
<style type="text/css">
	.st0{fill:#FFFFFF;}
	.st1{font-family:'TimesNewRomanPSMT';}
	.st2{font-size:34.1026px;}
</style>
<path class="st0" d="M4.4,34.5c-0.2-1.6-0.1-3.9-0.1-5.1L6.7,2.1h9l-2.5,27.6C12.7,35.7,15,40,21,40c6.1,0,9.3-4.3,9.9-9.6l2.5-28.2
	h9L39.9,30c-1,10.7-8.1,18.8-19.6,18.8C11.3,48.7,5.5,42.9,4.4,34.5"/>
<path class="st0" d="M46,25.3c1.2-13.1,10-24,25.4-24c4,0,7.9,0.9,11.8,3.4l-1,10.9c-3.5-4.6-7.7-5.4-11.6-5.4
	c-9.5,0-14.8,6.6-15.5,15c-0.7,8.2,3.5,14.8,12.7,14.8c4,0,8.3-1.2,12.8-5.6l-1,11.1c-4.4,2.4-8.4,3.4-12.5,3.4
	C51.8,48.8,44.9,37.6,46,25.3"/>
<path class="st0" d="M90.3,2.1h8.9l-3.3,37.2h12.8c0.9,0,4,0,4.8-0.1c0,0.4-0.8,8.6-0.8,8.6H86.2L90.3,2.1z"/>
<path class="st0" d="M136.8,19.1c0.3-0.6,0.6-1.5,0.7-1.9c0,0,0.1,0,0.1,0c0.1,0.6,0.2,1.3,0.3,1.9c0.5,2.1,4,13.6,4,13.6h-11.3
	C130.7,32.8,136.7,19.4,136.8,19.1 M139.1,0l-0.6,0L114,47.8h9.5l3.4-7.2h17.2l2.2,7.2h9.5L139.1,0z"/>
<text transform="matrix(1 0 0 1 166.7109 47.7715)" class="st0 st1 st2">Information Technology Services</text>
</svg>
